<?xml version="1.0" standalone="no"?>
<!DOCTYPE svg PUBLIC "-//W3C//DTD SVG 20010904//EN"
 "http://www.w3.org/TR/2001/REC-SVG-20010904/DTD/svg10.dtd">
<svg version="1.0" xmlns="http://www.w3.org/2000/svg"
 width="16.000000pt" height="16.000000pt" viewBox="0 0 16.000000 16.000000"
 preserveAspectRatio="xMidYMid meet">
<metadata>
Created by potrace 1.11, written by Peter Selinger 2001-2013
</metadata>
<g transform="translate(0.000000,16.000000) scale(0.006154,-0.006154)"
fill="#000000" stroke="none">
<path d="M0 1300 l0 -1300 1300 0 1300 0 0 1300 0 1300 -1300 0 -1300 0 0
-1300z m1141 1086 c171 -37 270 -142 298 -316 6 -36 11 -134 11 -217 l0 -153
-235 0 -235 0 0 70 c0 39 -6 86 -14 105 -19 46 -68 58 -205 53 -98 -3 -104 -5
-127 -31 l-24 -28 0 -508 c0 -486 1 -510 19 -532 18 -23 26 -24 154 -27 131
-3 135 -3 163 21 29 25 29 26 32 161 l4 135 -134 3 -133 3 -3 228 -2 227 542
0 c490 0 543 -2 560 -17 16 -14 18 -35 18 -210 l0 -193 150 0 c271 0 294 -13
422 -240 l87 -155 1 -202 c0 -170 -2 -204 -16 -217 -12 -12 -38 -16 -114 -16
l-98 0 -12 -29 c-25 -61 -104 -111 -175 -111 -71 0 -150 50 -175 111 l-12 28
-732 3 -731 3 -57 23 c-109 44 -193 144 -218 262 -8 40 -10 252 -8 775 l3 720
23 56 c44 111 138 186 265 214 89 19 617 20 708 1z"/>
<path d="M1448 1058 c-4 -362 -6 -420 -22 -468 -10 -30 -25 -66 -33 -80 -9
-14 -23 -35 -31 -48 l-14 -22 181 0 181 0 0 515 0 515 -129 0 -130 0 -3 -412z"/>
<path d="M1830 745 l0 -295 28 0 c20 0 33 10 50 38 35 56 83 85 152 90 79 6
139 -22 177 -83 28 -44 29 -44 86 -45 l57 0 0 136 0 135 -77 141 c-55 99 -87
147 -108 160 -26 15 -53 18 -197 18 l-168 0 0 -295z"/>
<path d="M2043 460 c-73 -30 -47 -150 33 -150 70 0 103 91 50 137 -29 24 -47
27 -83 13z"/>
</g>
</svg>
