<?xml version="1.0" standalone="no"?>
<!DOCTYPE svg PUBLIC "-//W3C//DTD SVG 20010904//EN"
 "http://www.w3.org/TR/2001/REC-SVG-20010904/DTD/svg10.dtd">
<svg version="1.0" xmlns="http://www.w3.org/2000/svg"
 width="260.000000pt" height="260.000000pt" viewBox="0 0 260.000000 260.000000"
 preserveAspectRatio="xMidYMid meet">
<metadata>
Created by potrace 1.11, written by Peter Selinger 2001-2013
</metadata>
<g transform="translate(0.000000,260.000000) scale(0.100000,-0.100000)"
fill="#000000" stroke="none">
<path d="M0 1300 l0 -1300 1300 0 1300 0 0 1300 0 1300 -1300 0 -1300 0 0
-1300z m1551 1025 c103 -18 208 -53 291 -97 79 -42 199 -155 242 -227 40 -69
92 -194 101 -242 l7 -35 -120 -32 c-66 -18 -122 -32 -124 -32 -3 0 -10 19 -17
43 -26 85 -92 195 -148 247 -250 229 -780 184 -993 -84 -63 -78 -112 -177
-147 -291 -26 -85 -27 -101 -27 -300 0 -233 11 -298 74 -430 105 -220 315
-353 600 -380 194 -18 470 62 628 181 l32 25 0 195 0 194 -300 0 -300 0 0 120
0 120 440 0 440 0 0 -379 0 -380 -82 -60 c-164 -119 -380 -212 -572 -246 -172
-29 -396 -15 -570 36 -37 11 -118 46 -180 77 -100 50 -122 67 -217 162 -98 97
-110 114 -162 220 -31 63 -68 153 -81 200 -91 322 -43 699 125 983 46 77 148
190 218 241 107 79 297 154 446 175 98 14 306 12 396 -4z"/>
</g>
</svg>
