<?xml version="1.0" encoding="utf-8"?>
<!-- Generator: Adobe Illustrator 17.0.0, SVG Export Plug-In . SVG Version: 6.00 Build 0)  -->
<!DOCTYPE svg PUBLIC "-//W3C//DTD SVG 1.1//EN" "http://www.w3.org/Graphics/SVG/1.1/DTD/svg11.dtd">
<svg version="1.1" id="Camada_1" xmlns="http://www.w3.org/2000/svg" xmlns:xlink="http://www.w3.org/1999/xlink" x="0px" y="0px"
	 width="982.444px" height="131.24px" viewBox="0 0 982.444 131.24" enable-background="new 0 0 982.444 131.24"
	 xml:space="preserve">
<g>
	<g>
		<path fill="#ED822A" d="M50.167,0H24.816C8.272,0.103,0,8.4,0,24.892v68.779c0,16.493,8.272,24.79,24.816,24.892h25.352
			c16.544-0.103,24.816-8.399,24.816-24.892V46.874H33.241v26.041h14.935v14.016c-0.103,3.217-1.991,4.825-5.668,4.825h-9.957
			c-3.881,0-5.77-1.889-5.668-5.668V32.551c-0.103-3.778,1.787-5.668,5.668-5.668h9.957c3.676,0,5.565,1.608,5.668,4.825v7.965
			h26.807V23.514C74.472,7.94,66.2,0.103,50.167,0z"/>
		<polygon fill="#ED822A" points="81.876,118.64 155.021,118.64 155.021,92.139 108.377,92.139 108.377,72.455 141.158,72.455 
			141.158,45.955 108.377,45.955 108.377,26.501 155.021,26.501 155.021,0 81.876,0 		"/>
		<path fill="#ED822A" d="M196.993,0l-37.759,118.257h27.879l4.825-15.395h36.917l4.978,15.395h27.879L223.8,0H196.993z
			 M199.367,79.655l11.029-34.389l11.029,34.389H199.367z"/>
		<path fill="#ED822A" d="M340.754,55.146V24.892c0-16.492-8.272-24.79-24.816-24.892h-49.401v80.038h0.23v39.138h26.501V80.038
			l20.143,39.291h29.717l-19.454-40.44C335.061,76.949,340.754,69.035,340.754,55.146z M313.947,47.563
			c0.102,5.872-1.788,8.808-5.668,8.808h-14.859V26.884h14.859c3.88,0,5.77,1.89,5.668,5.668V47.563z"/>
		<polygon fill="#ED822A" points="350.098,26.577 377.595,26.577 377.595,118.64 404.095,118.64 404.095,26.577 430.826,26.577 
			430.826,0.077 350.098,0.077 		"/>
		<path fill="#ED822A" d="M511.936,55.146V24.892c0-16.492-8.272-24.79-24.816-24.892h-49.401v80.038h0.23v39.138h26.501V80.038
			l20.143,39.291h29.717l-19.454-40.44C506.242,76.949,511.936,69.035,511.936,55.146z M485.129,47.563
			c0.102,5.872-1.788,8.808-5.668,8.808h-14.859V26.884h14.859c3.88,0,5.77,1.89,5.668,5.668V47.563z"/>
		<path fill="#ED822A" d="M556.359,0l-37.759,118.257h27.879l4.825-15.395h36.917l4.978,15.395h27.879L583.166,0H556.359z
			 M558.733,79.655l11.029-34.389l11.029,34.389H558.733z"/>
		<path fill="#ED822A" d="M675.305,0h-24.586c-16.544,0.103-24.816,8.4-24.816,24.892v68.779c0,16.493,8.272,24.79,24.816,24.892
			h24.586c16.544-0.103,24.816-8.399,24.816-24.892V75.978h-26.807v10.11c0.101,3.779-1.788,5.668-5.668,5.668h-9.191
			c-3.882,0-5.77-1.889-5.668-5.668V32.551c-0.103-3.778,1.786-5.668,5.668-5.668h9.191c3.574,0,5.463,1.558,5.668,4.672v9.65
			h26.807V24.892V23.82v-0.306C699.558,7.94,691.286,0.103,675.305,0z"/>
		<path fill="#ED822A" d="M981.84,80.023l-12.943-23.505c-3.657-6.635-10.643-10.755-18.241-10.755H923.59V5.304
			c0-2.704-2.2-4.895-4.911-4.895H788.339l0.015-0.026h-31.096l-21.828,39.444V0h-28.415v118.64h28.415V82.948l0.153-0.077
			l21.063,36.074h27.937c0.088,0.015,0.176,0.044,0.264,0.044h14.646c2.121,7.075,8.711,12.25,16.494,12.25
			c7.786,0,14.372-5.175,16.493-12.25h96.66c2.118,7.075,8.708,12.25,16.494,12.25c7.782,0,14.373-5.175,16.494-12.25h15.407
			c2.711,0,4.911-2.192,4.911-4.895V82.374C982.444,81.552,982.238,80.743,981.84,80.023z M816.024,121.224
			c-4.072,0-7.385-3.301-7.385-7.359c0-4.055,3.314-7.356,7.385-7.356c4.071,0,7.388,3.301,7.388,7.356
			C823.412,117.923,820.095,121.224,816.024,121.224z M913.766,109.203h-81.287c-2.121-7.075-8.707-12.254-16.493-12.254
			c-7.782,0-14.372,5.178-16.494,12.254h-9.736l-7.107-0.297l-29.297-47.71l29.496-51.247c1.578,0.022,2.934,0.232,5.065,0.177
			l1.843,0.069h124.01V109.203z M945.67,121.224c-4.071,0-7.385-3.301-7.385-7.359c0-4.055,3.314-7.356,7.385-7.356
			c4.072,0,7.385,3.301,7.385,7.356C953.055,117.923,949.742,121.224,945.67,121.224z M972.658,108.973h-10.493
			c-2.121-7.075-8.711-12.25-16.494-12.25c-7.786,0-14.372,5.175-16.494,12.25h-5.548V55.318h27.065c4.01,0,7.697,2.174,9.626,5.676
			l12.337,22.406V108.973z"/>
	</g>
	<path fill="#ED822A" d="M829.14,47.57h34.968l-6.607,6.581c-1.919,1.911-1.919,5.007,0,6.919c0.96,0.956,2.217,1.433,3.471,1.433
		c1.258,0,2.515-0.477,3.475-1.433l13.659-13.606c2.653-2.638,2.653-6.936,0-9.577L864.447,24.28c-1.919-1.911-5.027-1.911-6.946,0
		c-1.919,1.912-1.919,5.011,0,6.923l6.607,6.577H829.14c-2.711,0-4.911,2.192-4.911,4.895
		C824.229,45.378,826.429,47.57,829.14,47.57z"/>
	<path fill="#ED822A" d="M816.858,86.124c0.956,0.955,2.213,1.43,3.471,1.43s2.515-0.477,3.475-1.43
		c1.919-1.912,1.919-5.011,0-6.923l-6.607-6.581h34.964c2.714,0,4.915-2.192,4.915-4.892c0-2.704-2.2-4.895-4.915-4.895h-34.964
		l6.607-6.581c1.919-1.911,1.919-5.007,0-6.919c-1.919-1.911-5.028-1.911-6.946,0L803.199,62.94
		c-1.285,1.28-1.991,2.981-1.991,4.789c0,1.809,0.706,3.509,1.991,4.789L816.858,86.124z"/>
</g>
</svg>
